<?xml version="1.0" encoding="UTF-8"?>
<svg id="Layer_1" xmlns="http://www.w3.org/2000/svg" xmlns:xlink="http://www.w3.org/1999/xlink" version="1.1" viewBox="0 0 1210.4 1210.4">
  <!-- Generator: Adobe Illustrator 30.4.0, SVG Export Plug-In . SVG Version: 2.1.4 Build 226)  -->
  <defs>
    <style>
      .st0, .st1, .st2 {
        fill: none;
      }

      .st3 {
        mask: url(#mask);
      }

      .st4 {
        fill: url(#linear-gradient2);
      }

      .st5 {
        fill: url(#linear-gradient1);
      }

      .st6 {
        fill: url(#linear-gradient9);
      }

      .st7 {
        fill: url(#linear-gradient3);
      }

      .st8 {
        fill: url(#linear-gradient6);
      }

      .st9 {
        fill: url(#linear-gradient8);
      }

      .st10 {
        fill: url(#linear-gradient7);
      }

      .st11 {
        fill: url(#linear-gradient5);
      }

      .st12 {
        fill: url(#linear-gradient4);
      }

      .st1 {
        stroke: url(#linear-gradient13);
        stroke-width: 28px;
      }

      .st13 {
        fill: url(#linear-gradient12);
      }

      .st14 {
        fill: url(#linear-gradient15);
      }

      .st15 {
        fill: url(#linear-gradient16);
      }

      .st16 {
        fill: url(#linear-gradient11);
      }

      .st17 {
        fill: url(#linear-gradient10);
      }

      .st18 {
        fill: url(#linear-gradient17);
      }

      .st19 {
        fill: url(#linear-gradient14);
      }

      .st20 {
        fill: url(#linear-gradient);
      }

      .st21 {
        isolation: isolate;
      }

      .st22 {
        fill: #fee600;
      }

      .st23 {
        fill: #fff;
      }

      .st24, .st25 {
        fill: #530094;
      }

      .st25 {
        stroke: #ffe600;
        stroke-width: 10px;
      }

      .st25, .st2 {
        stroke-miterlimit: 7;
      }

      .st2 {
        stroke: url(#linear-gradient18);
        stroke-width: 15px;
      }

      .st26 {
        fill: url(#radial-gradient);
        fill-opacity: .8;
      }

      .st27 {
        mix-blend-mode: screen;
        opacity: 0;
      }
    </style>
    <radialGradient id="radial-gradient" cx="-2999.4" cy="-119.9" fx="-2999.4" fy="-119.9" r="1.5" gradientTransform="translate(1224811.0121 -48345.225) scale(408.1476 -408.1476)" gradientUnits="userSpaceOnUse">
      <stop offset="0" stop-color="#6b00ff" stop-opacity=".6"/>
      <stop offset="1" stop-color="#6b00ff" stop-opacity="0"/>
    </radialGradient>
    <linearGradient id="linear-gradient" x1="3.5" y1="1015" x2="1213.6" y2="1015" gradientTransform="translate(0 10)" gradientUnits="userSpaceOnUse">
      <stop offset="0" stop-color="#181227"/>
      <stop offset="1" stop-color="#100f17"/>
    </linearGradient>
    <mask id="mask" x="243" y="550.1" width="690" height="520" maskUnits="userSpaceOnUse"/>
    <linearGradient id="linear-gradient1" x1="3.5" y1="1029.3" x2="1213.6" y2="1029.3" gradientTransform="translate(0 10)" gradientUnits="userSpaceOnUse">
      <stop offset="0" stop-color="#181227"/>
      <stop offset="1" stop-color="#100f17"/>
    </linearGradient>
    <linearGradient id="linear-gradient2" x1="3.5" y1="1008.1" x2="1213.6" y2="1008.1" gradientTransform="translate(0 10)" gradientUnits="userSpaceOnUse">
      <stop offset="0" stop-color="#181227"/>
      <stop offset="1" stop-color="#100f17"/>
    </linearGradient>
    <linearGradient id="linear-gradient3" x1="-2826.7" y1="-1265.4" x2="-2826.7" y2="-1270.7" gradientTransform="translate(51327.7695 52700.0354) scale(18 40.8)" gradientUnits="userSpaceOnUse">
      <stop offset="0" stop-color="#530094"/>
      <stop offset=".2" stop-color="#50008f"/>
      <stop offset=".3" stop-color="#490083"/>
      <stop offset=".5" stop-color="#3e006e"/>
      <stop offset=".7" stop-color="#2d0051"/>
      <stop offset=".8" stop-color="#19002c"/>
      <stop offset="1" stop-color="#000"/>
    </linearGradient>
    <linearGradient id="linear-gradient4" x1="3.5" y1="973.8" x2="1213.6" y2="973.8" gradientTransform="translate(0 10)" gradientUnits="userSpaceOnUse">
      <stop offset="0" stop-color="#181227"/>
      <stop offset="1" stop-color="#100f17"/>
    </linearGradient>
    <linearGradient id="linear-gradient5" x1="-2818.9" y1="-1265.4" x2="-2818.9" y2="-1269.8" gradientTransform="translate(51327.7695 52700.0354) scale(18 40.8)" gradientUnits="userSpaceOnUse">
      <stop offset="0" stop-color="#530094"/>
      <stop offset=".2" stop-color="#50008f"/>
      <stop offset=".3" stop-color="#490083"/>
      <stop offset=".5" stop-color="#3e006e"/>
      <stop offset=".7" stop-color="#2d0051"/>
      <stop offset=".8" stop-color="#19002c"/>
      <stop offset="1" stop-color="#000"/>
    </linearGradient>
    <linearGradient id="linear-gradient6" x1="3.5" y1="918.3" x2="1213.6" y2="918.3" gradientTransform="translate(0 10)" gradientUnits="userSpaceOnUse">
      <stop offset="0" stop-color="#181227"/>
      <stop offset="1" stop-color="#100f17"/>
    </linearGradient>
    <linearGradient id="linear-gradient7" x1="-2811.1" y1="-1265.4" x2="-2811.1" y2="-1272.5" gradientTransform="translate(51327.7695 52700.0354) scale(18 40.8)" gradientUnits="userSpaceOnUse">
      <stop offset="0" stop-color="#530094"/>
      <stop offset=".2" stop-color="#50008f"/>
      <stop offset=".3" stop-color="#490083"/>
      <stop offset=".5" stop-color="#3e006e"/>
      <stop offset=".7" stop-color="#2d0051"/>
      <stop offset=".8" stop-color="#19002c"/>
      <stop offset="1" stop-color="#000"/>
    </linearGradient>
    <linearGradient id="linear-gradient8" x1="-2800.5" y1="-1276.9" x2="-2800.5" y2="-1266" gradientTransform="translate(51327.7695 52700.0354) scale(18 40.8)" gradientUnits="userSpaceOnUse">
      <stop offset="0" stop-color="#7a3393"/>
      <stop offset=".2" stop-color="#723996"/>
      <stop offset=".6" stop-color="#60489d"/>
      <stop offset="1" stop-color="#5a4ea0"/>
    </linearGradient>
    <linearGradient id="linear-gradient9" x1="3.5" y1="828.6" x2="1213.6" y2="828.6" gradientTransform="translate(0 10)" gradientUnits="userSpaceOnUse">
      <stop offset="0" stop-color="#181227"/>
      <stop offset="1" stop-color="#100f17"/>
    </linearGradient>
    <linearGradient id="linear-gradient10" x1="-2803.4" y1="-1265.6" x2="-2803.4" y2="-1276.8" gradientTransform="translate(51327.7695 52700.0354) scale(18 40.8)" gradientUnits="userSpaceOnUse">
      <stop offset="0" stop-color="#530094"/>
      <stop offset=".2" stop-color="#50008f"/>
      <stop offset=".3" stop-color="#490083"/>
      <stop offset=".5" stop-color="#3e006e"/>
      <stop offset=".7" stop-color="#2d0051"/>
      <stop offset=".8" stop-color="#19002c"/>
      <stop offset="1" stop-color="#000"/>
    </linearGradient>
    <linearGradient id="linear-gradient11" x1="-2834.4" y1="-1265.4" x2="-2834.4" y2="-1268.9" gradientTransform="translate(51327.7695 52700.0354) scale(18 40.8)" gradientUnits="userSpaceOnUse">
      <stop offset="0" stop-color="#530094"/>
      <stop offset=".2" stop-color="#50008f"/>
      <stop offset=".3" stop-color="#490083"/>
      <stop offset=".5" stop-color="#3e006e"/>
      <stop offset=".7" stop-color="#2d0051"/>
      <stop offset=".8" stop-color="#19002c"/>
      <stop offset="1" stop-color="#000"/>
    </linearGradient>
    <linearGradient id="linear-gradient12" x1="451.5" y1="124.5" x2="715" y2="124.5" gradientTransform="translate(0 10)" gradientUnits="userSpaceOnUse">
      <stop offset="0" stop-color="#fff"/>
      <stop offset=".7" stop-color="#ee9af2"/>
      <stop offset="1" stop-color="#e66aec"/>
    </linearGradient>
    <linearGradient id="linear-gradient13" x1="247.8" y1="376.7" x2="918.5" y2="1047.4" gradientTransform="translate(0 10)" gradientUnits="userSpaceOnUse">
      <stop offset="0" stop-color="#fff"/>
      <stop offset=".4" stop-color="#f4def6"/>
      <stop offset="1" stop-color="#e6b5ec"/>
    </linearGradient>
    <linearGradient id="linear-gradient14" x1="587.2" y1="238.8" x2="621.1" y2="238.8" gradientTransform="translate(0 10)" gradientUnits="userSpaceOnUse">
      <stop offset="0" stop-color="#530094"/>
      <stop offset=".3" stop-color="#550195"/>
      <stop offset=".4" stop-color="#5d089a"/>
      <stop offset=".6" stop-color="#6a13a2"/>
      <stop offset=".7" stop-color="#7e23ae"/>
      <stop offset=".8" stop-color="#9738be"/>
      <stop offset=".9" stop-color="#b652d1"/>
      <stop offset=".9" stop-color="#da6fe8"/>
      <stop offset="1" stop-color="#ff8eff"/>
    </linearGradient>
    <linearGradient id="linear-gradient15" x1="591.5" y1="533.8" x2="646.1" y2="533.8" gradientTransform="translate(0 10)" gradientUnits="userSpaceOnUse">
      <stop offset="0" stop-color="#530094"/>
      <stop offset=".3" stop-color="#550195"/>
      <stop offset=".4" stop-color="#5d089a"/>
      <stop offset=".6" stop-color="#6a13a2"/>
      <stop offset=".7" stop-color="#7e23ae"/>
      <stop offset=".8" stop-color="#9738be"/>
      <stop offset=".9" stop-color="#b652d1"/>
      <stop offset=".9" stop-color="#da6fe8"/>
      <stop offset="1" stop-color="#ff8eff"/>
    </linearGradient>
    <linearGradient id="linear-gradient16" x1="537.2" y1="309.5" x2="586.2" y2="309.5" gradientTransform="translate(0 10)" gradientUnits="userSpaceOnUse">
      <stop offset="0" stop-color="#530094"/>
      <stop offset=".3" stop-color="#550195"/>
      <stop offset=".4" stop-color="#5d089a"/>
      <stop offset=".6" stop-color="#6a13a2"/>
      <stop offset=".7" stop-color="#7e23ae"/>
      <stop offset=".8" stop-color="#9738be"/>
      <stop offset=".9" stop-color="#b652d1"/>
      <stop offset=".9" stop-color="#da6fe8"/>
      <stop offset="1" stop-color="#ff8eff"/>
    </linearGradient>
    <linearGradient id="linear-gradient17" x1="574.9" y1="389.6" x2="642.8" y2="389.6" gradientTransform="translate(0 10)" gradientUnits="userSpaceOnUse">
      <stop offset="0" stop-color="#530094"/>
      <stop offset=".3" stop-color="#550195"/>
      <stop offset=".4" stop-color="#5d089a"/>
      <stop offset=".6" stop-color="#6a13a2"/>
      <stop offset=".7" stop-color="#7e23ae"/>
      <stop offset=".8" stop-color="#9738be"/>
      <stop offset=".9" stop-color="#b652d1"/>
      <stop offset=".9" stop-color="#da6fe8"/>
      <stop offset="1" stop-color="#ff8eff"/>
    </linearGradient>
    <clipPath id="clippath">
      <circle class="st0" cx="557.8" cy="489.5" r="28.3"/>
    </clipPath>
    <linearGradient id="linear-gradient18" x1="279.2" y1="741.9" x2="816.9" y2="839.5" gradientTransform="translate(0 10)" gradientUnits="userSpaceOnUse">
      <stop offset="0" stop-color="#fee600" stop-opacity="0"/>
      <stop offset="0" stop-color="#fee600" stop-opacity="0"/>
      <stop offset=".1" stop-color="#fee600" stop-opacity=".3"/>
      <stop offset=".3" stop-color="#fee600" stop-opacity=".5"/>
      <stop offset=".4" stop-color="#fee600" stop-opacity=".6"/>
      <stop offset=".5" stop-color="#fee600" stop-opacity=".8"/>
      <stop offset=".6" stop-color="#fee600" stop-opacity=".9"/>
      <stop offset=".7" stop-color="#fee600" stop-opacity=".9"/>
      <stop offset=".9" stop-color="#fee600" stop-opacity="1"/>
      <stop offset="1" stop-color="#fee600"/>
    </linearGradient>
  </defs>
  <g class="st21">
    <g id="Layer_1-2">
      <rect x="3.9" y="0" width="1210.4" height="1210.4"/>
      <circle class="st26" cx="605.2" cy="605.2" r="606.5"/>
      <path class="st20" d="M933.7,1026.2l-10.8-40.5v78.5c7.5-10.9,11.4-24.2,10.8-38Z"/>
      <g>
        <path class="st24" d="M261.5,1048.6c7.6,7.5,16.6,13.8,26.6,18.5h561.6c13,0,25.9-2.9,37.5-8.3,5.7-2.7,10.8-6.1,15.2-10.1h5.4c1.3,0,2.4-1,2.4-2.2v-6.5c7.4-10.1,11.3-22.4,10.6-35.1l-10.6-37.4-100.4-353.3-4.9-17.1c-1.6-5.8-3.9-11.3-6.6-16.6-18.4,7.1-31.2,26.2-66.3,91.3-39.9,74-62-54.7-152.4-48.2-90.4,6.4-72.3,97.6-133.6,65.4-45.3-23.8-98.5-8.7-123.1.7l-85.6,313.2c-.2.9-.2,3,.3,5,2.5,9.3,6.5,18,11.8,26"/>
        <g class="st3">
          <g class="st27">
            <path class="st23" d="M269.8,1048.4c7.6,7.9,16.6,14.6,26.7,19.6h562.4c13.1,0,25.9-3,37.6-8.8,5.7-2.8,10.8-6.5,15.2-10.7h5.4c1.3,0,2.4-1.1,2.4-2.3v-6.8c7.4-10.7,11.3-23.7,10.7-37.1l-10.7-39.6-100.5-373.9-4.9-18.1c-1.6-6.1-3.9-12-6.6-17.6-18.5,7.6-31.3,27.7-66.4,96.7-39.9,78.3-62.1-57.9-152.6-51.1-90.6,6.8-72.4,103.3-133.8,69.2-45.4-25.2-98.6-9.2-123.3.8l-85.7,331.5c-.2.9-.2,3.2.3,5.3,2.5,9.8,6.5,19.1,11.8,27.5"/>
          </g>
        </g>
      </g>
      <path class="st5" d="M363.1,1071.2v-63.8c0-1.3-1.1-2.4-2.4-2.4h-105.6c-1.3,0-2.4,1.1-2.4,2.4v50.3c3.6,5.7,7.7,11,12.3,15.9h95.7c1.3,0,2.4-1.1,2.4-2.4Z"/>
      <rect class="st4" x="392.7" y="962.6" width="110.4" height="111" rx="2.4" ry="2.4"/>
      <path class="st7" d="M500.6,853.5h-105.6c-1.3,0-2.4,2.1-2.4,4.8v210.6c0,2.6,1.1,4.8,2.4,4.8h105.6c1.3,0,2.4-2.1,2.4-4.8v-210.6c0-2.6-1.1-4.8-2.4-4.8h0Z"/>
      <rect class="st12" x="532.6" y="894" width="110.4" height="179.5" rx="2.4" ry="2.4"/>
      <rect class="st11" x="532.6" y="894" width="110.4" height="179.5" rx="2.4" ry="2.4"/>
      <rect class="st8" x="672.6" y="783.1" width="110.4" height="290.5" rx="2.4" ry="2.4"/>
      <rect class="st10" x="672.6" y="783.1" width="110.4" height="290.5" rx="2.4" ry="2.4"/>
      <path class="st9" d="M914,1046.4h5.5c1.3,0,2.4-1,2.4-2.3v-6.6c-2.3,3.2-5,6.2-7.9,8.9Z"/>
      <path class="st6" d="M922.9,1064.2v-78.5l-101.8-382.2h-6.2c-1.3,0-2.4,1.1-2.4,2.4v465.2c0,1.3,1.1,2.4,2.4,2.4h100.1c3-2.9,5.6-6,7.9-9.4Z"/>
      <path class="st17" d="M921.9,1055.1v-76.4l-101.8-372.2h-6.2c-1.3,0-2.4,1-2.4,2.3v453.1c0,1.3,1.1,2.3,2.4,2.3h100.1c3-2.8,5.6-5.9,7.9-9.1Z"/>
      <path class="st16" d="M363.1,1068.5v-135.1c0-2.8-1.1-5.1-2.4-5.1h-105.6c-1.3,0-2.4,2.3-2.4,5.1v106.5c3.6,12.1,7.7,23.4,12.3,33.7h95.7c1.3,0,2.4-2.3,2.4-5.1h0Z"/>
      <g>
        <path class="st13" d="M495.2,153.4h-32.1c-6.7,0-11.9-4-11.6-8.8l1.2-20.7c.3-4.8,6-8.7,12.7-8.7l237.9.4c6.7,0,11.9,3.9,11.6,8.7l-1.2,20.7c-.3,4.8-6,8.7-12.7,8.7h-30.2c0,0-175.6-.4-175.6-.4h0Z"/>
        <path class="st1" d="M495.2,153.4c-.3,52.1-.5,106-.8,159.1-.4,52.5-2.4,107.1-24.3,155.1-23.2,54.4-68,85-106.8,130.3-16.3,19.4-30.1,40.5-41.5,63.4-21,42.7-33.5,89.6-46.8,135.8-15.1,53-32.2,116-35.3,167.7-1.9,32.3-.2,69,27,90.4,54.1,41.2,191.5,31.2,265,32.9,42.7,0,86,0,128.7,0,51.4-.3,98.1.8,144.8-3.9,110.4-10.9,134.7-47.5,118.5-154.4-8.4-50.8-26.5-106.5-41.1-157.8-14.6-48.7-28.5-100.6-49.5-141.8-23.4-48.6-59.7-78-96.2-113-18.8-18.8-34.6-41.2-44.9-66.3-22.3-53.8-20.2-110.4-20.8-169.6-.2-42.6-.4-85.1-.7-127.6"/>
      </g>
      <circle class="st19" cx="604.1" cy="248.8" r="17"/>
      <circle class="st14" cx="618.8" cy="543.8" r="27.3"/>
      <circle class="st15" cx="561.7" cy="319.5" r="24.5"/>
      <circle class="st18" cx="608.8" cy="399.6" r="33.9"/>
      <polyline class="st2" points="234.1 1030.8 474.3 848.8 562.8 979.6 691.2 755.8 710.4 848.8 860.8 567.6"/>
      <circle class="st25" cx="472.5" cy="846.5" r="14.6"/>
      <circle class="st25" cx="691.7" cy="748.1" r="14.6"/>
      <polygon class="st22" points="889.5 520.3 837.5 559.9 884.7 585.4 889.5 520.3"/>
    </g>
  </g>
</svg>